<?xml version="1.0" encoding="UTF-8" standalone="no"?>
<!DOCTYPE svg PUBLIC "-//W3C//DTD SVG 1.1//EN" "http://www.w3.org/Graphics/SVG/1.1/DTD/svg11.dtd">
<!-- Generated by Microsoft Visio, SVG Export Hardware.svg Page-1 -->
<svg xmlns="http://www.w3.org/2000/svg" xmlns:xlink="http://www.w3.org/1999/xlink" xmlns:ev="http://www.w3.org/2001/xml-events"
		xmlns:v="http://schemas.microsoft.com/visio/2003/SVGExtensions/" width="4.52257in" height="3.19602in"
		viewBox="0 0 325.625 230.114" xml:space="preserve" color-interpolation-filters="sRGB" class="st9">
	<v:documentProperties v:langID="1033" v:viewMarkup="false">
		<v:userDefs>
			<v:ud v:nameU="msvSubprocessMaster" v:prompt="" v:val="VT4(Rectangle)"/>
			<v:ud v:nameU="msvNoAutoConnect" v:val="VT0(1):26"/>
		</v:userDefs>
	</v:documentProperties>

	<style type="text/css">
	<![CDATA[
		.st1 {fill:#4672c4;stroke:none;stroke-width:0.75}
		.st2 {fill:none;stroke:none;stroke-width:0.25}
		.st3 {fill:#4672c4;font-family:Calibri;font-size:0.75em}
		.st4 {font-size:1em}
		.st5 {marker-end:url(#mrkr4-84);stroke:#4672c4;stroke-linecap:round;stroke-linejoin:round;stroke-width:1}
		.st6 {fill:#4672c4;fill-opacity:1;stroke:#4672c4;stroke-opacity:1;stroke-width:0.28409090909091}
		.st7 {fill:#ffffff;stroke:none;stroke-linecap:butt;stroke-width:7.2}
		.st8 {fill:#3c63ac;font-family:Calibri;font-size:0.499992em}
		.st9 {fill:none;fill-rule:evenodd;font-size:12px;overflow:visible;stroke-linecap:square;stroke-miterlimit:3}
	]]>
	</style>

	<defs id="Markers">
		<g id="lend4">
			<path d="M 2 1 L 0 0 L 2 -1 L 2 1 " style="stroke:none"/>
		</g>
		<marker id="mrkr4-84" class="st6" v:arrowType="4" v:arrowSize="2" v:setback="7.04" refX="-7.04" orient="auto"
				markerUnits="strokeWidth" overflow="visible">
			<use xlink:href="#lend4" transform="scale(-3.52,-3.52) "/>
		</marker>
	</defs>
	<g v:mID="0" v:index="1" v:groupContext="foregroundPage">
		<v:userDefs>
			<v:ud v:nameU="msvThemeOrder" v:val="VT0(0):26"/>
			<v:ud v:nameU="PEHideTags"/>
			<v:ud v:nameU="BatteryCount" v:prompt="" v:val="VT0(2):26"/>
		</v:userDefs>
		<title>Page-1</title>
		<v:pageProperties v:drawingScale="1" v:pageScale="1" v:drawingUnits="0" v:shadowOffsetX="9" v:shadowOffsetY="-9"/>
		<v:layer v:name="Equipment" v:index="0"/>
		<v:layer v:name="Electrical" v:index="1"/>
		<v:layer v:name="Connector" v:index="2"/>
		<g id="group27-1" transform="translate(208.375,-75)" v:mID="27" v:groupContext="group">
			<title>Sheet.27</title>
			<g id="group28-2" v:mID="28" v:groupContext="group">
				<title>Sheet.28</title>
				<g id="shape29-3" v:mID="29" v:groupContext="shape">
					<title>Sheet.29</title>
					<path d="M41.52 213.8 L39.55 213.8 L39.55 208.36 C39.55 207.28 38.66 206.39 37.57 206.39 L1.98 206.39 C0.89 206.39
								 0 207.28 0 208.36 L0 228.14 C0 229.22 0.89 230.11 1.98 230.11 L37.57 230.11 C38.66 230.11 39.55
								 229.22 39.55 228.14 L39.55 222.7 L41.52 222.7 C42.61 222.7 43.5 221.81 43.5 220.72 L43.5 215.78
								 C43.5 214.69 42.61 213.8 41.52 213.8 ZM36.58 227.15 L2.97 227.15 L2.97 209.35 L36.58 209.35 L36.58
								 227.15 Z" class="st1"/>
				</g>
				<g id="shape30-5" v:mID="30" v:groupContext="shape" transform="translate(4.94318,-4.94318)">
					<title>Sheet.30</title>
					<rect x="0" y="216.273" width="29.6591" height="13.8409" class="st1"/>
				</g>
			</g>
		</g>
		<g id="group31-7" transform="translate(142.75,-163.364)" v:mID="31" v:groupContext="group">
			<title>Sheet.31</title>
			<g id="group32-8" v:mID="32" v:groupContext="group">
				<title>Sheet.32</title>
				<g id="shape33-9" v:mID="33" v:groupContext="shape" transform="translate(16.5,-5)">
					<title>Sheet.33</title>
					<rect x="0" y="226.114" width="3" height="4" class="st1"/>
				</g>
				<g id="shape34-11" v:mID="34" v:groupContext="shape" transform="translate(16.5,-2.84217E-14)">
					<title>Sheet.34</title>
					<rect x="0" y="227.114" width="3" height="3" class="st1"/>
				</g>
				<g id="shape35-13" v:mID="35" v:groupContext="shape" transform="translate(21.5,-2.84217E-14)">
					<title>Sheet.35</title>
					<rect x="0" y="227.114" width="14.5" height="3" class="st1"/>
				</g>
				<g id="shape36-15" v:mID="36" v:groupContext="shape">
					<title>Sheet.36</title>
					<rect x="0" y="227.114" width="14.5" height="3" class="st1"/>
				</g>
				<g id="shape37-17" v:mID="37" v:groupContext="shape" transform="translate(2,-9)">
					<title>Sheet.37</title>
					<path d="M30.21 222.11 L1.79 222.11 C0.8 222.11 0 222.92 0 223.9 L0 228.32 C0 229.31 0.8 230.11 1.79 230.11 L30.21
								 230.11 C31.2 230.11 32 229.31 32 228.32 L32 223.9 C32 222.92 31.2 222.11 30.21 222.11 ZM5 227.11
								 C4.45 227.11 4 226.67 4 226.11 C4 225.56 4.45 225.11 5 225.11 C5.55 225.11 6 225.56 6 226.11 C6
								 226.67 5.55 227.11 5 227.11 ZM10 227.11 C9.45 227.11 9 226.67 9 226.11 C9 225.56 9.45 225.11 10
								 225.11 C10.55 225.11 11 225.56 11 226.11 C11 226.67 10.55 227.11 10 227.11 ZM15 227.11 C14.45 227.11
								 14 226.67 14 226.11 C14 225.56 14.45 225.11 15 225.11 C15.55 225.11 16 225.56 16 226.11 C16 226.67
								 15.55 227.11 15 227.11 Z" class="st1"/>
				</g>
				<g id="shape38-19" v:mID="38" v:groupContext="shape" transform="translate(2,-19)">
					<title>Sheet.38</title>
					<path d="M30.21 222.11 L1.79 222.11 C0.8 222.11 0 222.92 0 223.9 L0 228.32 C0 229.31 0.8 230.11 1.79 230.11 L30.21
								 230.11 C31.2 230.11 32 229.31 32 228.32 L32 223.9 C32 222.92 31.2 222.11 30.21 222.11 ZM5 227.11
								 C4.45 227.11 4 226.67 4 226.11 C4 225.56 4.45 225.11 5 225.11 C5.55 225.11 6 225.56 6 226.11 C6
								 226.67 5.55 227.11 5 227.11 ZM10 227.11 C9.45 227.11 9 226.67 9 226.11 C9 225.56 9.45 225.11 10
								 225.11 C10.55 225.11 11 225.56 11 226.11 C11 226.67 10.55 227.11 10 227.11 ZM15 227.11 C14.45 227.11
								 14 226.67 14 226.11 C14 225.56 14.45 225.11 15 225.11 C15.55 225.11 16 225.56 16 226.11 C16 226.67
								 15.55 227.11 15 227.11 Z" class="st1"/>
				</g>
				<g id="shape39-21" v:mID="39" v:groupContext="shape" transform="translate(2,-29)">
					<title>Sheet.39</title>
					<path d="M30.21 222.11 L1.79 222.11 C0.8 222.11 0 222.92 0 223.9 L0 228.32 C0 229.31 0.8 230.11 1.79 230.11 L30.21
								 230.11 C31.2 230.11 32 229.31 32 228.32 L32 223.9 C32 222.92 31.2 222.11 30.21 222.11 ZM5 227.11
								 C4.45 227.11 4 226.67 4 226.11 C4 225.56 4.45 225.11 5 225.11 C5.55 225.11 6 225.56 6 226.11 C6
								 226.67 5.55 227.11 5 227.11 ZM10 227.11 C9.45 227.11 9 226.67 9 226.11 C9 225.56 9.45 225.11 10
								 225.11 C10.55 225.11 11 225.56 11 226.11 C11 226.67 10.55 227.11 10 227.11 ZM15 227.11 C14.45 227.11
								 14 226.67 14 226.11 C14 225.56 14.45 225.11 15 225.11 C15.55 225.11 16 225.56 16 226.11 C16 226.67
								 15.55 227.11 15 227.11 Z" class="st1"/>
				</g>
			</g>
		</g>
		<g id="group40-23" transform="translate(215.5,-18.75)" v:mID="40" v:groupContext="group">
			<title>Sheet.40</title>
			<g id="group41-24" v:mID="41" v:groupContext="group">
				<title>Sheet.41</title>
				<g id="shape42-25" v:mID="42" v:groupContext="shape">
					<title>Sheet.42</title>
					<path d="M14.63 200.86 C6.54 200.86 0 207.41 0 215.49 C0 223.57 6.54 230.11 14.63 230.11 C22.71 230.11 29.25
								 223.57 29.25 215.49 C29.25 207.41 22.71 200.86 14.63 200.86 ZM14.63 203.17 C21.4 203.17 26.94 208.71
								 26.94 215.49 C26.94 222.26 21.4 227.8 14.63 227.8 C7.85 227.8 2.31 222.26 2.31 215.49 C2.31 208.71
								 7.85 203.17 14.63 203.17 Z" class="st1"/>
				</g>
				<g id="shape43-27" v:mID="43" v:groupContext="shape" transform="translate(8.62105,-8.62105)">
					<title>Sheet.43</title>
					<path d="M0 230.11 L8.47 226.65 L11.93 218.18 L3.46 221.72 L0 230.11 ZM6 223.34 C6.47 223.34 6.77 223.65 6.77
								 224.11 C6.77 224.57 6.47 224.88 6 224.88 C5.54 224.88 5.23 224.57 5.23 224.11 C5.23 223.65 5.54
								 223.34 6 223.34 Z" class="st1"/>
				</g>
			</g>
		</g>
		<g id="group46-29" transform="translate(27.1429,-115.364)" v:mID="46" v:groupContext="group">
			<title>Sheet.46</title>
			<g id="group47-30" v:mID="47" v:groupContext="group">
				<title>Sheet.47</title>
				<g id="shape48-31" v:mID="48" v:groupContext="shape">
					<title>Sheet.48</title>
					<path d="M46.29 214.69 L5.14 214.69 L5.14 187.26 L46.29 187.26 L46.29 214.69 ZM48 182.11 L3.43 182.11 C1.54 182.11
								 0 183.66 0 185.54 L0 216.4 C0 218.29 1.54 219.83 3.43 219.83 L20.57 219.83 L20.57 224.97 L12.86
								 224.97 L12.86 230.11 L38.57 230.11 L38.57 224.97 L30.86 224.97 L30.86 219.83 L48 219.83 C49.89 219.83
								 51.43 218.29 51.43 216.4 L51.43 185.54 C51.43 183.66 49.89 182.11 48 182.11 Z" class="st1"/>
				</g>
				<g id="shape49-33" v:mID="49" v:groupContext="shape" transform="translate(54.8571,0)">
					<title>Sheet.49</title>
					<path d="M20.57 190.69 L3.43 190.69 L3.43 185.54 L20.57 185.54 L20.57 190.69 ZM20.57 199.26 L3.43 199.26 L3.43
								 194.11 L20.57 194.11 L20.57 199.26 ZM12 224.97 C10.54 224.97 9.43 223.86 9.43 222.4 C9.43 220.94
								 10.54 219.83 12 219.83 C13.46 219.83 14.57 220.94 14.57 222.4 C14.57 223.86 13.46 224.97 12 224.97
								 ZM20.57 182.11 L3.43 182.11 C1.54 182.11 0 183.66 0 185.54 L0 226.69 C0 228.57 1.54 230.11 3.43
								 230.11 L20.57 230.11 C22.46 230.11 24 228.57 24 226.69 L24 185.54 C24 183.66 22.46 182.11 20.57
								 182.11 Z" class="st1"/>
				</g>
			</g>
		</g>
		<g id="group50-35" transform="translate(142.75,-96.3636)" v:mID="50" v:groupContext="group">
			<title>Sheet.50</title>
			<g id="group51-36" v:mID="51" v:groupContext="group">
				<title>Sheet.51</title>
				<g id="shape52-37" v:mID="52" v:groupContext="shape" transform="translate(16.5,-5)">
					<title>Sheet.52</title>
					<rect x="0" y="226.114" width="3" height="4" class="st1"/>
				</g>
				<g id="shape53-39" v:mID="53" v:groupContext="shape" transform="translate(16.5,-2.84217E-14)">
					<title>Sheet.53</title>
					<rect x="0" y="227.114" width="3" height="3" class="st1"/>
				</g>
				<g id="shape54-41" v:mID="54" v:groupContext="shape" transform="translate(21.5,-2.84217E-14)">
					<title>Sheet.54</title>
					<rect x="0" y="227.114" width="14.5" height="3" class="st1"/>
				</g>
				<g id="shape55-43" v:mID="55" v:groupContext="shape">
					<title>Sheet.55</title>
					<rect x="0" y="227.114" width="14.5" height="3" class="st1"/>
				</g>
				<g id="shape56-45" v:mID="56" v:groupContext="shape" transform="translate(2,-9)">
					<title>Sheet.56</title>
					<path d="M30.21 222.11 L1.79 222.11 C0.8 222.11 0 222.92 0 223.9 L0 228.32 C0 229.31 0.8 230.11 1.79 230.11 L30.21
								 230.11 C31.2 230.11 32 229.31 32 228.32 L32 223.9 C32 222.92 31.2 222.11 30.21 222.11 ZM5 227.11
								 C4.45 227.11 4 226.67 4 226.11 C4 225.56 4.45 225.11 5 225.11 C5.55 225.11 6 225.56 6 226.11 C6
								 226.67 5.55 227.11 5 227.11 ZM10 227.11 C9.45 227.11 9 226.67 9 226.11 C9 225.56 9.45 225.11 10
								 225.11 C10.55 225.11 11 225.56 11 226.11 C11 226.67 10.55 227.11 10 227.11 ZM15 227.11 C14.45 227.11
								 14 226.67 14 226.11 C14 225.56 14.45 225.11 15 225.11 C15.55 225.11 16 225.56 16 226.11 C16 226.67
								 15.55 227.11 15 227.11 Z" class="st1"/>
				</g>
				<g id="shape57-47" v:mID="57" v:groupContext="shape" transform="translate(2,-19)">
					<title>Sheet.57</title>
					<path d="M30.21 222.11 L1.79 222.11 C0.8 222.11 0 222.92 0 223.9 L0 228.32 C0 229.31 0.8 230.11 1.79 230.11 L30.21
								 230.11 C31.2 230.11 32 229.31 32 228.32 L32 223.9 C32 222.92 31.2 222.11 30.21 222.11 ZM5 227.11
								 C4.45 227.11 4 226.67 4 226.11 C4 225.56 4.45 225.11 5 225.11 C5.55 225.11 6 225.56 6 226.11 C6
								 226.67 5.55 227.11 5 227.11 ZM10 227.11 C9.45 227.11 9 226.67 9 226.11 C9 225.56 9.45 225.11 10
								 225.11 C10.55 225.11 11 225.56 11 226.11 C11 226.67 10.55 227.11 10 227.11 ZM15 227.11 C14.45 227.11
								 14 226.67 14 226.11 C14 225.56 14.45 225.11 15 225.11 C15.55 225.11 16 225.56 16 226.11 C16 226.67
								 15.55 227.11 15 227.11 Z" class="st1"/>
				</g>
				<g id="shape58-49" v:mID="58" v:groupContext="shape" transform="translate(2,-29)">
					<title>Sheet.58</title>
					<path d="M30.21 222.11 L1.79 222.11 C0.8 222.11 0 222.92 0 223.9 L0 228.32 C0 229.31 0.8 230.11 1.79 230.11 L30.21
								 230.11 C31.2 230.11 32 229.31 32 228.32 L32 223.9 C32 222.92 31.2 222.11 30.21 222.11 ZM5 227.11
								 C4.45 227.11 4 226.67 4 226.11 C4 225.56 4.45 225.11 5 225.11 C5.55 225.11 6 225.56 6 226.11 C6
								 226.67 5.55 227.11 5 227.11 ZM10 227.11 C9.45 227.11 9 226.67 9 226.11 C9 225.56 9.45 225.11 10
								 225.11 C10.55 225.11 11 225.56 11 226.11 C11 226.67 10.55 227.11 10 227.11 ZM15 227.11 C14.45 227.11
								 14 226.67 14 226.11 C14 225.56 14.45 225.11 15 225.11 C15.55 225.11 16 225.56 16 226.11 C16 226.67
								 15.55 227.11 15 227.11 Z" class="st1"/>
				</g>
			</g>
		</g>
		<g id="group59-51" transform="translate(215.5,-182.157)" v:mID="59" v:groupContext="group">
			<title>Sheet.59</title>
			<g id="shape60-52" v:mID="60" v:groupContext="shape">
				<title>Sheet.60</title>
				<path d="M14.6 220.66 C11.77 220.66 9.45 218.34 9.45 215.51 C9.45 212.68 11.77 210.36 14.6 210.36 C17.44 210.36 19.76
							 212.68 19.76 215.51 C19.76 218.34 17.44 220.66 14.6 220.66 ZM26.2 212.29 C25.94 211.34 25.56 210.44
							 25.08 209.63 L26.16 206.4 L23.71 203.96 L20.49 205.03 C19.63 204.56 18.73 204.17 17.78 203.91 L16.32
							 200.91 L12.89 200.91 L11.38 203.91 C10.44 204.17 9.54 204.56 8.72 205.03 L5.5 203.96 L3.05 206.4 L4.12
							 209.63 C3.65 210.48 3.26 211.39 3.01 212.33 L0 213.79 L0 217.23 L3.01 218.73 C3.26 219.68 3.65 220.58
							 4.12 221.39 L3.05 224.62 L5.5 227.06 L8.72 225.99 C9.58 226.46 10.48 226.85 11.43 227.11 L12.93 230.11
							 L16.36 230.11 L17.87 227.11 C18.81 226.85 19.71 226.46 20.53 225.99 L23.75 227.06 L26.2 224.62 L25.13
							 221.39 C25.6 220.54 25.99 219.63 26.24 218.69 L29.25 217.19 L29.25 213.75 L26.2 212.29 Z" class="st1"/>
			</g>
		</g>
		<g id="group61-54" transform="translate(215.5,-149.864)" v:mID="61" v:groupContext="group">
			<title>Sheet.61</title>
			<g id="shape62-55" v:mID="62" v:groupContext="shape">
				<title>Sheet.62</title>
				<path d="M14.6 220.66 C11.77 220.66 9.45 218.34 9.45 215.51 C9.45 212.68 11.77 210.36 14.6 210.36 C17.44 210.36 19.76
							 212.68 19.76 215.51 C19.76 218.34 17.44 220.66 14.6 220.66 ZM26.2 212.29 C25.94 211.34 25.56 210.44
							 25.08 209.63 L26.16 206.4 L23.71 203.96 L20.49 205.03 C19.63 204.56 18.73 204.17 17.78 203.91 L16.32
							 200.91 L12.89 200.91 L11.38 203.91 C10.44 204.17 9.54 204.56 8.72 205.03 L5.5 203.96 L3.05 206.4 L4.12
							 209.63 C3.65 210.48 3.26 211.39 3.01 212.33 L0 213.79 L0 217.23 L3.01 218.73 C3.26 219.68 3.65 220.58
							 4.12 221.39 L3.05 224.62 L5.5 227.06 L8.72 225.99 C9.58 226.46 10.48 226.85 11.43 227.11 L12.93 230.11
							 L16.36 230.11 L17.87 227.11 C18.81 226.85 19.71 226.46 20.53 225.99 L23.75 227.06 L26.2 224.62 L25.13
							 221.39 C25.6 220.54 25.99 219.63 26.24 218.69 L29.25 217.19 L29.25 213.75 L26.2 212.29 Z" class="st1"/>
			</g>
		</g>
		<g id="group63-57" transform="translate(215.5,-104.157)" v:mID="63" v:groupContext="group">
			<title>Sheet.63</title>
			<g id="shape64-58" v:mID="64" v:groupContext="shape">
				<title>Sheet.64</title>
				<path d="M14.6 220.66 C11.77 220.66 9.45 218.34 9.45 215.51 C9.45 212.68 11.77 210.36 14.6 210.36 C17.44 210.36 19.76
							 212.68 19.76 215.51 C19.76 218.34 17.44 220.66 14.6 220.66 ZM26.2 212.29 C25.94 211.34 25.56 210.44
							 25.08 209.63 L26.16 206.4 L23.71 203.96 L20.49 205.03 C19.63 204.56 18.73 204.17 17.78 203.91 L16.32
							 200.91 L12.89 200.91 L11.38 203.91 C10.44 204.17 9.54 204.56 8.72 205.03 L5.5 203.96 L3.05 206.4 L4.12
							 209.63 C3.65 210.48 3.26 211.39 3.01 212.33 L0 213.79 L0 217.23 L3.01 218.73 C3.26 219.68 3.65 220.58
							 4.12 221.39 L3.05 224.62 L5.5 227.06 L8.72 225.99 C9.58 226.46 10.48 226.85 11.43 227.11 L12.93 230.11
							 L16.36 230.11 L17.87 227.11 C18.81 226.85 19.71 226.46 20.53 225.99 L23.75 227.06 L26.2 224.62 L25.13
							 221.39 C25.6 220.54 25.99 219.63 26.24 218.69 L29.25 217.19 L29.25 213.75 L26.2 212.29 Z" class="st1"/>
			</g>
		</g>
		<g id="shape65-60" v:mID="65" v:groupContext="shape" transform="translate(258.438,-28.875)">
			<title>Sheet.65</title>
			<desc>IMU</desc>
			<v:textBlock v:margins="rect(4,4,4,4)"/>
			<v:textRect cx="16.875" cy="225.614" width="33.75" height="9"/>
			<rect x="0" y="221.114" width="33.75" height="9" class="st2"/>
			<text x="9.01" y="228.31" class="st3" v:langID="1033"><v:paragraph v:horizAlign="1"/><v:tabList/>IMU</text>		</g>
		<g id="shape68-63" v:mID="68" v:groupContext="shape" transform="translate(243.25,-82.3636)">
			<title>Sheet.68</title>
			<desc>Smart Battery</desc>
			<v:textBlock v:margins="rect(4,4,4,4)"/>
			<v:textRect cx="32.0625" cy="225.614" width="64.13" height="9"/>
			<rect x="0" y="221.114" width="64.125" height="9" class="st2"/>
			<text x="21.17" y="222.91" class="st3" v:langID="1033"><v:paragraph v:horizAlign="1"/><v:tabList/>Smart <v:newlineChar/><tspan
						x="18.6" dy="1.2em" class="st4">Battery</tspan></text>		</g>
		<g id="shape69-67" v:mID="69" v:groupContext="shape" transform="translate(243.25,-115.091)">
			<title>Sheet.69</title>
			<desc>Encos Motor</desc>
			<v:textBlock v:margins="rect(4,4,4,4)"/>
			<v:textRect cx="32.0625" cy="225.614" width="64.13" height="9"/>
			<rect x="0" y="221.114" width="64.125" height="9" class="st2"/>
			<text x="21.47" y="222.91" class="st3" v:langID="1033"><v:paragraph v:horizAlign="1"/><v:tabList/>Encos<v:newlineChar/><tspan
						x="20.39" dy="1.2em" class="st4">Motor</tspan></text>		</g>
		<g id="shape70-71" v:mID="70" v:groupContext="shape" transform="translate(243.25,-192.26)">
			<title>Sheet.70</title>
			<desc>Encos Motor</desc>
			<v:textBlock v:margins="rect(4,4,4,4)"/>
			<v:textRect cx="32.0625" cy="225.614" width="64.13" height="9"/>
			<rect x="0" y="221.114" width="64.125" height="9" class="st2"/>
			<text x="21.47" y="222.91" class="st3" v:langID="1033"><v:paragraph v:horizAlign="1"/><v:tabList/>Encos<v:newlineChar/><tspan
						x="20.39" dy="1.2em" class="st4">Motor</tspan></text>		</g>
		<g id="shape71-75" v:mID="71" v:groupContext="shape" transform="translate(243.25,-159.967)">
			<title>Sheet.71</title>
			<desc>Encos Motor</desc>
			<v:textBlock v:margins="rect(4,4,4,4)"/>
			<v:textRect cx="32.0625" cy="225.614" width="64.13" height="9"/>
			<rect x="0" y="221.114" width="64.125" height="9" class="st2"/>
			<text x="21.47" y="222.91" class="st3" v:langID="1033"><v:paragraph v:horizAlign="1"/><v:tabList/>Encos<v:newlineChar/><tspan
						x="20.39" dy="1.2em" class="st4">Motor</tspan></text>		</g>
		<g id="shape72-79" v:mID="72" v:groupContext="shape" v:layerMember="2" transform="translate(66.5714,-125.649)">
			<title>Dynamic connector</title>
			<desc>USB2.0 Bus</desc>
			<v:textBlock v:margins="rect(4,4,4,4)"/>
			<v:textRect cx="28.3271" cy="322.388" width="36.95" height="15.2035"/>
			<path d="M0 230.11 L0 322.39 L141.89 322.39" class="st5"/>
			<rect v:rectContext="textBkgnd" x="14.5344" y="318.788" width="27.5856" height="7.20016" class="st7"/>
			<text x="14.53" y="324.19" class="st8" v:langID="1033"><v:paragraph v:horizAlign="1"/><v:tabList/>USB2.0 Bus</text>		</g>
		<g id="shape73-87" v:mID="73" v:groupContext="shape" v:layerMember="2" transform="translate(94,-163.364)">
			<title>Dynamic connector.73</title>
			<desc>EtherCAT</desc>
			<v:textBlock v:margins="rect(4,4,4,4)"/>
			<v:textRect cx="15.125" cy="211.614" width="32.13" height="15.2035"/>
			<path d="M0 230.11 L0 211.61 L41.71 211.61" class="st5"/>
			<rect v:rectContext="textBkgnd" x="3.74341" y="208.014" width="22.7634" height="7.20016" class="st7"/>
			<text x="3.74" y="213.41" class="st8" v:langID="1033"><v:paragraph v:horizAlign="1"/><v:tabList/>EtherCAT</text>		</g>
		<g id="shape74-94" v:mID="74" v:groupContext="shape" v:layerMember="2" transform="translate(151.75,-163.364)">
			<title>Dynamic connector.74</title>
			<desc>EtherCAT</desc>
			<v:textBlock v:margins="rect(4,4,4,4)"/>
			<v:textRect cx="9" cy="245.114" width="32.13" height="15.2035"/>
			<path d="M9 230.11 L9 253.07" class="st5"/>
			<rect v:rectContext="textBkgnd" x="-2.38159" y="241.514" width="22.7634" height="7.20016" class="st7"/>
			<text x="-2.38" y="246.91" class="st8" v:langID="1033"><v:paragraph v:horizAlign="1"/><v:tabList/>EtherCAT</text>		</g>
		<g id="shape75-101" v:mID="75" v:groupContext="shape" v:layerMember="2" transform="translate(176.75,-187.364)">
			<title>Dynamic connector.75</title>
			<desc>CAN</desc>
			<v:textBlock v:margins="rect(4,4,4,4)"/>
			<v:textRect cx="19.375" cy="221.114" width="30" height="15.2035"/>
			<path d="M0 221.11 L31.71 221.11" class="st5"/>
			<rect v:rectContext="textBkgnd" x="14.1031" y="217.514" width="10.5439" height="7.20016" class="st7"/>
			<text x="14.1" y="222.91" class="st8" v:langID="1033"><v:paragraph v:horizAlign="1"/><v:tabList/>CAN</text>		</g>
		<g id="shape76-108" v:mID="76" v:groupContext="shape" v:layerMember="2" transform="translate(186.75,-196.364)">
			<title>Dynamic connector.76</title>
			<desc>CAN</desc>
			<v:textBlock v:margins="rect(4,4,4,4)"/>
			<v:textRect cx="0" cy="260.989" width="30" height="15.2035"/>
			<path d="M0 230.11 L0 263.11 L21.71 263.11" class="st5"/>
			<rect v:rectContext="textBkgnd" x="-5.27188" y="257.389" width="10.5439" height="7.20016" class="st7"/>
			<text x="-5.27" y="262.79" class="st8" v:langID="1033"><v:paragraph v:horizAlign="1"/><v:tabList/>CAN</text>		</g>
		<g id="shape77-115" v:mID="77" v:groupContext="shape" v:layerMember="2" transform="translate(176.75,-110.364)">
			<title>Dynamic connector.77</title>
			<desc>CAN</desc>
			<v:textBlock v:margins="rect(4,4,4,4)"/>
			<v:textRect cx="19.375" cy="221.114" width="30" height="15.2035"/>
			<path d="M0 221.11 L31.71 221.11" class="st5"/>
			<rect v:rectContext="textBkgnd" x="14.1031" y="217.514" width="10.5439" height="7.20016" class="st7"/>
			<text x="14.1" y="222.91" class="st8" v:langID="1033"><v:paragraph v:horizAlign="1"/><v:tabList/>CAN</text>		</g>
		<g id="shape78-122" v:mID="78" v:groupContext="shape" v:layerMember="2" transform="translate(183.625,-119.364)">
			<title>Dynamic connector.78</title>
			<desc>CAN</desc>
			<v:textBlock v:margins="rect(4,4,4,4)"/>
			<v:textRect cx="0" cy="259.33" width="30" height="15.2035"/>
			<path d="M0 230.11 L0 263.8 L17.71 263.8" class="st5"/>
			<rect v:rectContext="textBkgnd" x="-5.27188" y="255.73" width="10.5439" height="7.20016" class="st7"/>
			<text x="-5.27" y="261.13" class="st8" v:langID="1033"><v:paragraph v:horizAlign="1"/><v:tabList/>CAN</text>		</g>
		<g id="shape79-129" v:mID="79" v:groupContext="shape" transform="translate(108.25,-100.364)">
			<title>Sheet.79</title>
			<desc>Slave1</desc>
			<v:textBlock v:margins="rect(4,4,4,4)"/>
			<v:textRect cx="23.625" cy="225.614" width="47.25" height="9"/>
			<rect x="0" y="221.114" width="47.25" height="9" class="st2"/>
			<text x="11.82" y="228.31" class="st3" v:langID="1033"><v:paragraph v:horizAlign="1"/><v:tabList/>Slave1</text>		</g>
		<g id="shape83-132" v:mID="83" v:groupContext="shape" transform="translate(108.25,-165.614)">
			<title>Sheet.83</title>
			<desc>Slave0</desc>
			<v:textBlock v:margins="rect(4,4,4,4)"/>
			<v:textRect cx="23.625" cy="225.614" width="47.25" height="9"/>
			<rect x="0" y="221.114" width="47.25" height="9" class="st2"/>
			<text x="11.82" y="228.31" class="st3" v:langID="1033"><v:paragraph v:horizAlign="1"/><v:tabList/>Slave0</text>		</g>
		<g id="shape88-135" v:mID="88" v:groupContext="shape" transform="translate(18.25,-91.3636)">
			<title>Sheet.88</title>
			<desc>PC/ EtherCAT Master</desc>
			<v:textBlock v:margins="rect(4,4,4,4)"/>
			<v:textRect cx="27" cy="225.614" width="54" height="9"/>
			<rect x="0" y="221.114" width="54" height="9" class="st2"/>
			<text x="20.54" y="217.51" class="st3" v:langID="1033"><v:paragraph v:horizAlign="1"/><v:tabList/>PC/<v:newlineChar/><tspan
						x="9.93" dy="1.2em" class="st4">EtherCAT </tspan><tspan x="13.92" dy="1.2em" class="st4">Master</tspan></text>		</g>
	</g>
</svg>
