<?xml version="1.0" encoding="UTF-8" standalone="no"?>
<!DOCTYPE svg PUBLIC "-//W3C//DTD SVG 1.1//EN" "http://www.w3.org/Graphics/SVG/1.1/DTD/svg11.dtd">
<!-- Generated by Microsoft Visio, SVG Export Hardware.svg Page-1 -->
<svg xmlns="http://www.w3.org/2000/svg" xmlns:xlink="http://www.w3.org/1999/xlink" xmlns:ev="http://www.w3.org/2001/xml-events"
		xmlns:v="http://schemas.microsoft.com/visio/2003/SVGExtensions/" width="8.00347in" height="5.57858in"
		viewBox="0 0 576.25 401.658" xml:space="preserve" color-interpolation-filters="sRGB" class="st9">
	<v:documentProperties v:langID="1033" v:viewMarkup="false">
		<v:userDefs>
			<v:ud v:nameU="msvSubprocessMaster" v:prompt="" v:val="VT4(Rectangle)"/>
			<v:ud v:nameU="msvNoAutoConnect" v:val="VT0(1):26"/>
		</v:userDefs>
	</v:documentProperties>

	<style type="text/css">
	<![CDATA[
		.st1 {fill:#4672c4;stroke:none;stroke-width:0.75}
		.st2 {fill:none;stroke:none;stroke-width:0.25}
		.st3 {fill:#4672c4;font-family:Calibri;font-size:1.5em}
		.st4 {font-size:1em}
		.st5 {marker-end:url(#mrkr4-84);stroke:#4672c4;stroke-linecap:round;stroke-linejoin:round;stroke-width:3}
		.st6 {fill:#4672c4;fill-opacity:1;stroke:#4672c4;stroke-opacity:1;stroke-width:0.54347826086957}
		.st7 {fill:#ffffff;stroke:none;stroke-linecap:butt;stroke-width:7.2}
		.st8 {fill:#3c63ac;font-family:Calibri;font-size:1.16666em}
		.st9 {fill:none;fill-rule:evenodd;font-size:12px;overflow:visible;stroke-linecap:square;stroke-miterlimit:3}
	]]>
	</style>

	<defs id="Markers">
		<g id="lend4">
			<path d="M 2 1 L 0 0 L 2 -1 L 2 1 " style="stroke:none"/>
		</g>
		<marker id="mrkr4-84" class="st6" v:arrowType="4" v:arrowSize="2" v:setback="3.68" refX="-3.68" orient="auto"
				markerUnits="strokeWidth" overflow="visible">
			<use xlink:href="#lend4" transform="scale(-1.84,-1.84) "/>
		</marker>
	</defs>
	<g v:mID="0" v:index="1" v:groupContext="foregroundPage">
		<v:userDefs>
			<v:ud v:nameU="msvThemeOrder" v:val="VT0(0):26"/>
			<v:ud v:nameU="PEHideTags"/>
			<v:ud v:nameU="BatteryCount" v:prompt="" v:val="VT0(2):26"/>
		</v:userDefs>
		<title>Page-1</title>
		<v:pageProperties v:drawingScale="1" v:pageScale="1" v:drawingUnits="0" v:shadowOffsetX="9" v:shadowOffsetY="-9"/>
		<v:layer v:name="Equipment" v:index="0"/>
		<v:layer v:name="Electrical" v:index="1"/>
		<v:layer v:name="Connector" v:index="2"/>
		<g id="group27-1" transform="translate(373.183,-125.097)" v:mID="27" v:groupContext="group">
			<title>Sheet.27</title>
			<g id="group28-2" v:mID="28" v:groupContext="group">
				<title>Sheet.28</title>
				<g id="shape29-3" v:mID="29" v:groupContext="shape">
					<title>Sheet.29</title>
					<path d="M77.52 370.82 L73.83 370.82 L73.83 360.54 C73.83 358.48 72.16 356.8 70.13 356.8 L3.69 356.8 C1.66 356.8
								 0 358.48 0 360.54 L0 397.92 C0 399.98 1.66 401.66 3.69 401.66 L70.13 401.66 C72.16 401.66 73.83
								 399.98 73.83 397.92 L73.83 387.64 L77.52 387.64 C79.55 387.64 81.21 385.96 81.21 383.9 L81.21 374.56
								 C81.21 372.5 79.55 370.82 77.52 370.82 ZM68.29 396.05 L5.54 396.05 L5.54 362.41 L68.29 362.41 L68.29
								 396.05 Z" class="st1"/>
				</g>
				<g id="shape30-5" v:mID="30" v:groupContext="shape" transform="translate(9.22813,-9.34565)">
					<title>Sheet.30</title>
					<rect x="0" y="375.49" width="55.3688" height="26.1678" class="st1"/>
				</g>
			</g>
		</g>
		<g id="group31-7" transform="translate(250.672,-292.159)" v:mID="31" v:groupContext="group">
			<title>Sheet.31</title>
			<g id="group32-8" v:mID="32" v:groupContext="group">
				<title>Sheet.32</title>
				<g id="shape33-9" v:mID="33" v:groupContext="shape" transform="translate(30.8029,-9.45307)">
					<title>Sheet.33</title>
					<rect x="0" y="394.096" width="5.60052" height="7.56246" class="st1"/>
				</g>
				<g id="shape34-11" v:mID="34" v:groupContext="shape" transform="translate(30.8029,0)">
					<title>Sheet.34</title>
					<rect x="0" y="395.986" width="5.60052" height="5.67184" class="st1"/>
				</g>
				<g id="shape35-13" v:mID="35" v:groupContext="shape" transform="translate(40.1371,0)">
					<title>Sheet.35</title>
					<rect x="0" y="395.986" width="27.0692" height="5.67184" class="st1"/>
				</g>
				<g id="shape36-15" v:mID="36" v:groupContext="shape">
					<title>Sheet.36</title>
					<rect x="0" y="395.986" width="27.0692" height="5.67184" class="st1"/>
				</g>
				<g id="shape37-17" v:mID="37" v:groupContext="shape" transform="translate(3.73368,-17.0155)">
					<title>Sheet.37</title>
					<path d="M56.4 386.53 L3.34 386.53 C1.5 386.53 0 388.05 0 389.92 L0 398.27 C0 400.14 1.5 401.66 3.34 401.66 L56.4
								 401.66 C58.24 401.66 59.74 400.14 59.74 398.27 L59.74 389.92 C59.74 388.05 58.24 386.53 56.4 386.53
								 ZM9.33 395.99 C8.3 395.99 7.47 395.14 7.47 394.1 C7.47 393.05 8.3 392.21 9.33 392.21 C10.37 392.21
								 11.2 393.05 11.2 394.1 C11.2 395.14 10.37 395.99 9.33 395.99 ZM18.67 395.99 C17.64 395.99 16.8 395.14
								 16.8 394.1 C16.8 393.05 17.64 392.21 18.67 392.21 C19.7 392.21 20.54 393.05 20.54 394.1 C20.54 395.14
								 19.7 395.99 18.67 395.99 ZM28 395.99 C26.97 395.99 26.14 395.14 26.14 394.1 C26.14 393.05 26.97
								 392.21 28 392.21 C29.03 392.21 29.87 393.05 29.87 394.1 C29.87 395.14 29.03 395.99 28 395.99 Z"
							class="st1"/>
				</g>
				<g id="shape38-19" v:mID="38" v:groupContext="shape" transform="translate(3.73368,-35.9217)">
					<title>Sheet.38</title>
					<path d="M56.4 386.53 L3.34 386.53 C1.5 386.53 0 388.05 0 389.92 L0 398.27 C0 400.14 1.5 401.66 3.34 401.66 L56.4
								 401.66 C58.24 401.66 59.74 400.14 59.74 398.27 L59.74 389.92 C59.74 388.05 58.24 386.53 56.4 386.53
								 ZM9.33 395.99 C8.3 395.99 7.47 395.14 7.47 394.1 C7.47 393.05 8.3 392.21 9.33 392.21 C10.37 392.21
								 11.2 393.05 11.2 394.1 C11.2 395.14 10.37 395.99 9.33 395.99 ZM18.67 395.99 C17.64 395.99 16.8 395.14
								 16.8 394.1 C16.8 393.05 17.64 392.21 18.67 392.21 C19.7 392.21 20.54 393.05 20.54 394.1 C20.54 395.14
								 19.7 395.99 18.67 395.99 ZM28 395.99 C26.97 395.99 26.14 395.14 26.14 394.1 C26.14 393.05 26.97
								 392.21 28 392.21 C29.03 392.21 29.87 393.05 29.87 394.1 C29.87 395.14 29.03 395.99 28 395.99 Z"
							class="st1"/>
				</g>
				<g id="shape39-21" v:mID="39" v:groupContext="shape" transform="translate(3.73368,-54.8278)">
					<title>Sheet.39</title>
					<path d="M56.4 386.53 L3.34 386.53 C1.5 386.53 0 388.05 0 389.92 L0 398.27 C0 400.14 1.5 401.66 3.34 401.66 L56.4
								 401.66 C58.24 401.66 59.74 400.14 59.74 398.27 L59.74 389.92 C59.74 388.05 58.24 386.53 56.4 386.53
								 ZM9.33 395.99 C8.3 395.99 7.47 395.14 7.47 394.1 C7.47 393.05 8.3 392.21 9.33 392.21 C10.37 392.21
								 11.2 393.05 11.2 394.1 C11.2 395.14 10.37 395.99 9.33 395.99 ZM18.67 395.99 C17.64 395.99 16.8 395.14
								 16.8 394.1 C16.8 393.05 17.64 392.21 18.67 392.21 C19.7 392.21 20.54 393.05 20.54 394.1 C20.54 395.14
								 19.7 395.99 18.67 395.99 ZM28 395.99 C26.97 395.99 26.14 395.14 26.14 394.1 C26.14 393.05 26.97
								 392.21 28 392.21 C29.03 392.21 29.87 393.05 29.87 394.1 C29.87 395.14 29.03 395.99 28 395.99 Z"
							class="st1"/>
				</g>
			</g>
		</g>
		<g id="group40-23" transform="translate(386.484,-18.75)" v:mID="40" v:groupContext="group">
			<title>Sheet.40</title>
			<g id="group41-24" v:mID="41" v:groupContext="group">
				<title>Sheet.41</title>
				<g id="shape42-25" v:mID="42" v:groupContext="shape">
					<title>Sheet.42</title>
					<path d="M27.3 346.36 C12.21 346.36 0 358.73 0 374.01 C0 389.29 12.21 401.66 27.3 401.66 C42.39 401.66 54.61
								 389.29 54.61 374.01 C54.61 358.73 42.39 346.36 27.3 346.36 ZM27.3 350.72 C39.95 350.72 50.29 361.2
								 50.29 374.01 C50.29 386.81 39.95 397.29 27.3 397.29 C14.66 397.29 4.31 386.81 4.31 374.01 C4.31
								 361.2 14.66 350.72 27.3 350.72 Z" class="st1"/>
				</g>
				<g id="shape43-27" v:mID="43" v:groupContext="shape" transform="translate(16.0941,-16.2991)">
					<title>Sheet.43</title>
					<path d="M0 401.66 L15.81 395.11 L22.27 379.1 L6.47 385.8 L0 401.66 ZM11.21 388.85 C12.07 388.85 12.65 389.43
								 12.65 390.31 C12.65 391.18 12.07 391.76 11.21 391.76 C10.35 391.76 9.77 391.18 9.77 390.31 C9.77
								 389.43 10.35 388.85 11.21 388.85 Z" class="st1"/>
				</g>
			</g>
		</g>
		<g id="group46-29" transform="translate(34.8515,-201.409)" v:mID="46" v:groupContext="group">
			<title>Sheet.46</title>
			<g id="group47-30" v:mID="47" v:groupContext="group">
				<title>Sheet.47</title>
				<g id="shape48-31" v:mID="48" v:groupContext="shape">
					<title>Sheet.48</title>
					<path d="M86.41 372.49 L9.6 372.49 L9.6 320.63 L86.41 320.63 L86.41 372.49 ZM89.61 310.91 L6.4 310.91 C2.88 310.91
								 0 313.83 0 317.39 L0 375.73 C0 379.29 2.88 382.21 6.4 382.21 L38.4 382.21 L38.4 391.93 L24 391.93
								 L24 401.66 L72.01 401.66 L72.01 391.93 L57.61 391.93 L57.61 382.21 L89.61 382.21 C93.13 382.21 96.01
								 379.29 96.01 375.73 L96.01 317.39 C96.01 313.83 93.13 310.91 89.61 310.91 Z" class="st1"/>
				</g>
				<g id="shape49-33" v:mID="49" v:groupContext="shape" transform="translate(102.409,5.68434E-14)">
					<title>Sheet.49</title>
					<path d="M38.4 327.11 L6.4 327.11 L6.4 317.39 L38.4 317.39 L38.4 327.11 ZM38.4 343.32 L6.4 343.32 L6.4 333.6
								 L38.4 333.6 L38.4 343.32 ZM22.4 391.93 C19.68 391.93 17.6 389.83 17.6 387.07 C17.6 384.32 19.68
								 382.21 22.4 382.21 C25.12 382.21 27.2 384.32 27.2 387.07 C27.2 389.83 25.12 391.93 22.4 391.93 ZM38.4
								 310.91 L6.4 310.91 C2.88 310.91 0 313.83 0 317.39 L0 395.18 C0 398.74 2.88 401.66 6.4 401.66 L38.4
								 401.66 C41.92 401.66 44.8 398.74 44.8 395.18 L44.8 317.39 C44.8 313.83 41.92 310.91 38.4 310.91
								 Z" class="st1"/>
				</g>
			</g>
		</g>
		<g id="group50-35" transform="translate(250.672,-165.487)" v:mID="50" v:groupContext="group">
			<title>Sheet.50</title>
			<g id="group51-36" v:mID="51" v:groupContext="group">
				<title>Sheet.51</title>
				<g id="shape52-37" v:mID="52" v:groupContext="shape" transform="translate(30.8029,-9.45307)">
					<title>Sheet.52</title>
					<rect x="0" y="394.096" width="5.60052" height="7.56246" class="st1"/>
				</g>
				<g id="shape53-39" v:mID="53" v:groupContext="shape" transform="translate(30.8029,0)">
					<title>Sheet.53</title>
					<rect x="0" y="395.986" width="5.60052" height="5.67184" class="st1"/>
				</g>
				<g id="shape54-41" v:mID="54" v:groupContext="shape" transform="translate(40.1371,0)">
					<title>Sheet.54</title>
					<rect x="0" y="395.986" width="27.0692" height="5.67184" class="st1"/>
				</g>
				<g id="shape55-43" v:mID="55" v:groupContext="shape">
					<title>Sheet.55</title>
					<rect x="0" y="395.986" width="27.0692" height="5.67184" class="st1"/>
				</g>
				<g id="shape56-45" v:mID="56" v:groupContext="shape" transform="translate(3.73368,-17.0155)">
					<title>Sheet.56</title>
					<path d="M56.4 386.53 L3.34 386.53 C1.5 386.53 0 388.05 0 389.92 L0 398.27 C0 400.14 1.5 401.66 3.34 401.66 L56.4
								 401.66 C58.24 401.66 59.74 400.14 59.74 398.27 L59.74 389.92 C59.74 388.05 58.24 386.53 56.4 386.53
								 ZM9.33 395.99 C8.3 395.99 7.47 395.14 7.47 394.1 C7.47 393.05 8.3 392.21 9.33 392.21 C10.37 392.21
								 11.2 393.05 11.2 394.1 C11.2 395.14 10.37 395.99 9.33 395.99 ZM18.67 395.99 C17.64 395.99 16.8 395.14
								 16.8 394.1 C16.8 393.05 17.64 392.21 18.67 392.21 C19.7 392.21 20.54 393.05 20.54 394.1 C20.54 395.14
								 19.7 395.99 18.67 395.99 ZM28 395.99 C26.97 395.99 26.14 395.14 26.14 394.1 C26.14 393.05 26.97
								 392.21 28 392.21 C29.03 392.21 29.87 393.05 29.87 394.1 C29.87 395.14 29.03 395.99 28 395.99 Z"
							class="st1"/>
				</g>
				<g id="shape57-47" v:mID="57" v:groupContext="shape" transform="translate(3.73368,-35.9217)">
					<title>Sheet.57</title>
					<path d="M56.4 386.53 L3.34 386.53 C1.5 386.53 0 388.05 0 389.92 L0 398.27 C0 400.14 1.5 401.66 3.34 401.66 L56.4
								 401.66 C58.24 401.66 59.74 400.14 59.74 398.27 L59.74 389.92 C59.74 388.05 58.24 386.53 56.4 386.53
								 ZM9.33 395.99 C8.3 395.99 7.47 395.14 7.47 394.1 C7.47 393.05 8.3 392.21 9.33 392.21 C10.37 392.21
								 11.2 393.05 11.2 394.1 C11.2 395.14 10.37 395.99 9.33 395.99 ZM18.67 395.99 C17.64 395.99 16.8 395.14
								 16.8 394.1 C16.8 393.05 17.64 392.21 18.67 392.21 C19.7 392.21 20.54 393.05 20.54 394.1 C20.54 395.14
								 19.7 395.99 18.67 395.99 ZM28 395.99 C26.97 395.99 26.14 395.14 26.14 394.1 C26.14 393.05 26.97
								 392.21 28 392.21 C29.03 392.21 29.87 393.05 29.87 394.1 C29.87 395.14 29.03 395.99 28 395.99 Z"
							class="st1"/>
				</g>
				<g id="shape58-49" v:mID="58" v:groupContext="shape" transform="translate(3.73368,-54.8278)">
					<title>Sheet.58</title>
					<path d="M56.4 386.53 L3.34 386.53 C1.5 386.53 0 388.05 0 389.92 L0 398.27 C0 400.14 1.5 401.66 3.34 401.66 L56.4
								 401.66 C58.24 401.66 59.74 400.14 59.74 398.27 L59.74 389.92 C59.74 388.05 58.24 386.53 56.4 386.53
								 ZM9.33 395.99 C8.3 395.99 7.47 395.14 7.47 394.1 C7.47 393.05 8.3 392.21 9.33 392.21 C10.37 392.21
								 11.2 393.05 11.2 394.1 C11.2 395.14 10.37 395.99 9.33 395.99 ZM18.67 395.99 C17.64 395.99 16.8 395.14
								 16.8 394.1 C16.8 393.05 17.64 392.21 18.67 392.21 C19.7 392.21 20.54 393.05 20.54 394.1 C20.54 395.14
								 19.7 395.99 18.67 395.99 ZM28 395.99 C26.97 395.99 26.14 395.14 26.14 394.1 C26.14 393.05 26.97
								 392.21 28 392.21 C29.03 392.21 29.87 393.05 29.87 394.1 C29.87 395.14 29.03 395.99 28 395.99 Z"
							class="st1"/>
				</g>
			</g>
		</g>
		<g id="group59-51" transform="translate(386.484,-327.689)" v:mID="59" v:groupContext="group">
			<title>Sheet.59</title>
			<g id="shape60-52" v:mID="60" v:groupContext="shape">
				<title>Sheet.60</title>
				<path d="M27.26 383.79 C21.97 383.79 17.64 379.41 17.64 374.05 C17.64 368.69 21.97 364.3 27.26 364.3 C32.55 364.3
							 36.88 368.69 36.88 374.05 C36.88 379.41 32.55 383.79 27.26 383.79 ZM48.91 367.96 C48.43 366.17 47.71
							 364.47 46.83 362.92 L48.83 356.83 L44.26 352.2 L38.25 354.23 C36.64 353.34 34.96 352.61 33.2 352.12
							 L30.47 346.44 L24.06 346.44 L21.25 352.12 C19.48 352.61 17.8 353.34 16.28 354.23 L10.26 352.2 L5.69
							 356.83 L7.7 362.92 C6.82 364.55 6.09 366.25 5.61 368.04 L0 370.8 L0 377.3 L5.61 380.14 C6.09 381.93
							 6.82 383.63 7.7 385.17 L5.69 391.26 L10.26 395.89 L16.28 393.86 C17.88 394.76 19.56 395.49 21.33 395.97
							 L24.14 401.66 L30.55 401.66 L33.36 395.97 C35.12 395.49 36.8 394.76 38.33 393.86 L44.34 395.89 L48.91
							 391.26 L46.91 385.17 C47.79 383.55 48.51 381.84 48.99 380.06 L54.61 377.22 L54.61 370.72 L48.91 367.96
							 Z" class="st1"/>
			</g>
		</g>
		<g id="group61-54" transform="translate(386.484,-266.635)" v:mID="61" v:groupContext="group">
			<title>Sheet.61</title>
			<g id="shape62-55" v:mID="62" v:groupContext="shape">
				<title>Sheet.62</title>
				<path d="M27.26 383.79 C21.97 383.79 17.64 379.41 17.64 374.05 C17.64 368.69 21.97 364.3 27.26 364.3 C32.55 364.3
							 36.88 368.69 36.88 374.05 C36.88 379.41 32.55 383.79 27.26 383.79 ZM48.91 367.96 C48.43 366.17 47.71
							 364.47 46.83 362.92 L48.83 356.83 L44.26 352.2 L38.25 354.23 C36.64 353.34 34.96 352.61 33.2 352.12
							 L30.47 346.44 L24.06 346.44 L21.25 352.12 C19.48 352.61 17.8 353.34 16.28 354.23 L10.26 352.2 L5.69
							 356.83 L7.7 362.92 C6.82 364.55 6.09 366.25 5.61 368.04 L0 370.8 L0 377.3 L5.61 380.14 C6.09 381.93
							 6.82 383.63 7.7 385.17 L5.69 391.26 L10.26 395.89 L16.28 393.86 C17.88 394.76 19.56 395.49 21.33 395.97
							 L24.14 401.66 L30.55 401.66 L33.36 395.97 C35.12 395.49 36.8 394.76 38.33 393.86 L44.34 395.89 L48.91
							 391.26 L46.91 385.17 C47.79 383.55 48.51 381.84 48.99 380.06 L54.61 377.22 L54.61 370.72 L48.91 367.96
							 Z" class="st1"/>
			</g>
		</g>
		<g id="group63-57" transform="translate(386.484,-180.221)" v:mID="63" v:groupContext="group">
			<title>Sheet.63</title>
			<g id="shape64-58" v:mID="64" v:groupContext="shape">
				<title>Sheet.64</title>
				<path d="M27.26 383.79 C21.97 383.79 17.64 379.41 17.64 374.05 C17.64 368.69 21.97 364.3 27.26 364.3 C32.55 364.3
							 36.88 368.69 36.88 374.05 C36.88 379.41 32.55 383.79 27.26 383.79 ZM48.91 367.96 C48.43 366.17 47.71
							 364.47 46.83 362.92 L48.83 356.83 L44.26 352.2 L38.25 354.23 C36.64 353.34 34.96 352.61 33.2 352.12
							 L30.47 346.44 L24.06 346.44 L21.25 352.12 C19.48 352.61 17.8 353.34 16.28 354.23 L10.26 352.2 L5.69
							 356.83 L7.7 362.92 C6.82 364.55 6.09 366.25 5.61 368.04 L0 370.8 L0 377.3 L5.61 380.14 C6.09 381.93
							 6.82 383.63 7.7 385.17 L5.69 391.26 L10.26 395.89 L16.28 393.86 C17.88 394.76 19.56 395.49 21.33 395.97
							 L24.14 401.66 L30.55 401.66 L33.36 395.97 C35.12 395.49 36.8 394.76 38.33 393.86 L44.34 395.89 L48.91
							 391.26 L46.91 385.17 C47.79 383.55 48.51 381.84 48.99 380.06 L54.61 377.22 L54.61 370.72 L48.91 367.96
							 Z" class="st1"/>
			</g>
		</g>
		<g id="shape65-60" v:mID="65" v:groupContext="shape" transform="translate(466.642,-37.8925)">
			<title>Sheet.65</title>
			<desc>IMU</desc>
			<v:textBlock v:margins="rect(4,4,4,4)"/>
			<v:textRect cx="31.5029" cy="393.15" width="63.01" height="17.0155"/>
			<rect x="0" y="384.643" width="63.0058" height="17.0155" class="st2"/>
			<text x="15.77" y="398.55" class="st3" v:langID="1033"><v:paragraph v:horizAlign="1"/><v:tabList/>IMU</text>		</g>
		<g id="shape68-63" v:mID="68" v:groupContext="shape" transform="translate(438.289,-139.019)">
			<title>Sheet.68</title>
			<desc>Smart Battery</desc>
			<v:textBlock v:margins="rect(4,4,4,4)"/>
			<v:textRect cx="59.8555" cy="393.15" width="119.72" height="17.0155"/>
			<rect x="0" y="384.643" width="119.711" height="17.0155" class="st2"/>
			<text x="38.07" y="387.75" class="st3" v:langID="1033"><v:paragraph v:horizAlign="1"/><v:tabList/>Smart <v:newlineChar/><tspan
						x="32.93" dy="1.2em" class="st4">Battery</tspan></text>		</g>
		<g id="shape69-67" v:mID="69" v:groupContext="shape" transform="translate(438.289,-200.894)">
			<title>Sheet.69</title>
			<desc>Encos Motor</desc>
			<v:textBlock v:margins="rect(4,4,4,4)"/>
			<v:textRect cx="59.8555" cy="393.15" width="119.72" height="17.0155"/>
			<rect x="0" y="384.643" width="119.711" height="17.0155" class="st2"/>
			<text x="38.66" y="387.75" class="st3" v:langID="1033"><v:paragraph v:horizAlign="1"/><v:tabList/>Encos<v:newlineChar/><tspan
						x="36.52" dy="1.2em" class="st4">Motor</tspan></text>		</g>
		<g id="shape70-71" v:mID="70" v:groupContext="shape" transform="translate(438.289,-346.791)">
			<title>Sheet.70</title>
			<desc>Encos Motor</desc>
			<v:textBlock v:margins="rect(4,4,4,4)"/>
			<v:textRect cx="59.8555" cy="393.15" width="119.72" height="17.0155"/>
			<rect x="0" y="384.643" width="119.711" height="17.0155" class="st2"/>
			<text x="38.66" y="387.75" class="st3" v:langID="1033"><v:paragraph v:horizAlign="1"/><v:tabList/>Encos<v:newlineChar/><tspan
						x="36.52" dy="1.2em" class="st4">Motor</tspan></text>		</g>
		<g id="shape71-75" v:mID="71" v:groupContext="shape" transform="translate(438.289,-285.737)">
			<title>Sheet.71</title>
			<desc>Encos Motor</desc>
			<v:textBlock v:margins="rect(4,4,4,4)"/>
			<v:textRect cx="59.8555" cy="393.15" width="119.72" height="17.0155"/>
			<rect x="0" y="384.643" width="119.711" height="17.0155" class="st2"/>
			<text x="38.66" y="387.75" class="st3" v:langID="1033"><v:paragraph v:horizAlign="1"/><v:tabList/>Encos<v:newlineChar/><tspan
						x="36.52" dy="1.2em" class="st4">Motor</tspan></text>		</g>
		<g id="shape72-79" v:mID="72" v:groupContext="shape" v:layerMember="2" transform="translate(108.458,-220.855)">
			<title>Dynamic connector</title>
			<desc>USB2.0 Bus</desc>
			<v:textBlock v:margins="rect(4,4,4,4)"/>
			<v:textRect cx="51.7853" cy="576.113" width="75.54" height="24.8035"/>
			<path d="M0 401.66 L0 576.11 L266.99 576.11" class="st5"/>
			<rect v:rectContext="textBkgnd" x="19.6023" y="567.714" width="64.3661" height="16.8" class="st7"/>
			<text x="19.6" y="580.31" class="st8" v:langID="1033"><v:paragraph v:horizAlign="1"/><v:tabList/>USB2.0 Bus</text>		</g>
		<g id="shape73-87" v:mID="73" v:groupContext="shape" v:layerMember="2" transform="translate(159.663,-292.159)">
			<title>Dynamic connector.73</title>
			<desc>EtherCAT</desc>
			<v:textBlock v:margins="rect(4,4,4,4)"/>
			<v:textRect cx="28.016" cy="366.682" width="70" height="24.8035"/>
			<path d="M0 401.66 L0 366.68 L79.97 366.68" class="st5"/>
			<rect v:rectContext="textBkgnd" x="1.45848" y="358.282" width="53.1151" height="16.8" class="st7"/>
			<text x="1.46" y="370.88" class="st8" v:langID="1033"><v:paragraph v:horizAlign="1"/><v:tabList/>EtherCAT</text>		</g>
		<g id="shape74-94" v:mID="74" v:groupContext="shape" v:layerMember="2" transform="translate(275.275,-292.159)">
			<title>Dynamic connector.74</title>
			<desc>EtherCAT</desc>
			<v:textBlock v:margins="rect(4,4,4,4)"/>
			<v:textRect cx="9" cy="430.017" width="70" height="24.8035"/>
			<path d="M9 401.66 L9 447.34" class="st5"/>
			<rect v:rectContext="textBkgnd" x="-17.5576" y="421.618" width="53.1151" height="16.8" class="st7"/>
			<text x="-17.56" y="434.22" class="st8" v:langID="1033"><v:paragraph v:horizAlign="1"/><v:tabList/>EtherCAT</text>		</g>
		<g id="shape75-101" v:mID="75" v:groupContext="shape" v:layerMember="2" transform="translate(314.144,-345.549)">
			<title>Dynamic connector.75</title>
			<desc>CAN</desc>
			<v:textBlock v:margins="rect(4,4,4,4)"/>
			<v:textRect cx="36.17" cy="392.658" width="70" height="24.8035"/>
			<path d="M0 392.66 L61.3 392.66" class="st5"/>
			<rect v:rectContext="textBkgnd" x="23.8689" y="384.258" width="24.6022" height="16.8" class="st7"/>
			<text x="23.87" y="396.86" class="st8" v:langID="1033"><v:paragraph v:horizAlign="1"/><v:tabList/>CAN</text>		</g>
		<g id="shape76-108" v:mID="76" v:groupContext="shape" v:layerMember="2" transform="translate(330.3,-350.794)">
			<title>Dynamic connector.76</title>
			<desc>CAN</desc>
			<v:textBlock v:margins="rect(4,4,4,4)"/>
			<v:textRect cx="0" cy="459.068" width="70" height="24.8035"/>
			<path d="M0 401.66 L0 460.29 L45.14 460.29" class="st5"/>
			<rect v:rectContext="textBkgnd" x="-12.3011" y="450.668" width="24.6022" height="16.8" class="st7"/>
			<text x="-12.3" y="463.27" class="st8" v:langID="1033"><v:paragraph v:horizAlign="1"/><v:tabList/>CAN</text>		</g>
		<g id="shape77-115" v:mID="77" v:groupContext="shape" v:layerMember="2" transform="translate(314.144,-199.972)">
			<title>Dynamic connector.77</title>
			<desc>CAN</desc>
			<v:textBlock v:margins="rect(4,4,4,4)"/>
			<v:textRect cx="36.17" cy="392.658" width="70" height="24.8035"/>
			<path d="M0 392.66 L61.3 392.66" class="st5"/>
			<rect v:rectContext="textBkgnd" x="23.8689" y="384.258" width="24.6022" height="16.8" class="st7"/>
			<text x="23.87" y="396.86" class="st8" v:langID="1033"><v:paragraph v:horizAlign="1"/><v:tabList/>CAN</text>		</g>
		<g id="shape78-122" v:mID="78" v:groupContext="shape" v:layerMember="2" transform="translate(326.25,-205.216)">
			<title>Dynamic connector.78</title>
			<desc>CAN</desc>
			<v:textBlock v:margins="rect(4,4,4,4)"/>
			<v:textRect cx="0" cy="455.087" width="70" height="24.8035"/>
			<path d="M0 401.66 L0 461.58 L35.89 461.58" class="st5"/>
			<rect v:rectContext="textBkgnd" x="-12.3011" y="446.687" width="24.6022" height="16.8" class="st7"/>
			<text x="-12.3" y="459.29" class="st8" v:langID="1033"><v:paragraph v:horizAlign="1"/><v:tabList/>CAN</text>		</g>
		<g id="shape79-129" v:mID="79" v:groupContext="shape" transform="translate(186.266,-173.05)">
			<title>Sheet.79</title>
			<desc>Slave1</desc>
			<v:textBlock v:margins="rect(4,4,4,4)"/>
			<v:textRect cx="44.1041" cy="393.15" width="88.21" height="17.0155"/>
			<rect x="0" y="384.643" width="88.2082" height="17.0155" class="st2"/>
			<text x="20.49" y="398.55" class="st3" v:langID="1033"><v:paragraph v:horizAlign="1"/><v:tabList/>Slave1</text>		</g>
		<g id="shape83-132" v:mID="83" v:groupContext="shape" transform="translate(186.266,-296.412)">
			<title>Sheet.83</title>
			<desc>Slave0</desc>
			<v:textBlock v:margins="rect(4,4,4,4)"/>
			<v:textRect cx="44.1041" cy="393.15" width="88.21" height="17.0155"/>
			<rect x="0" y="384.643" width="88.2082" height="17.0155" class="st2"/>
			<text x="20.49" y="398.55" class="st3" v:langID="1033"><v:paragraph v:horizAlign="1"/><v:tabList/>Slave0</text>		</g>
		<g id="shape88-135" v:mID="88" v:groupContext="shape" transform="translate(18.25,-156.034)">
			<title>Sheet.88</title>
			<desc>PC/ EtherCAT Master</desc>
			<v:textBlock v:margins="rect(4,4,4,4)"/>
			<v:textRect cx="50.4047" cy="393.15" width="100.81" height="17.0155"/>
			<rect x="0" y="384.643" width="100.809" height="17.0155" class="st2"/>
			<text x="37.48" y="376.95" class="st3" v:langID="1033"><v:paragraph v:horizAlign="1"/><v:tabList/>PC/<v:newlineChar/><tspan
						x="16.26" dy="1.2em" class="st4">EtherCAT </tspan><tspan x="24.25" dy="1.2em" class="st4">Master</tspan></text>		</g>
	</g>
</svg>
